<svg xmlns="http://www.w3.org/2000/svg" id="mermaid-1587532740696" width="100%" height="100%" viewBox="-104.688 -10 1134.688 976" style="max-width:1134.6875px"><style>#mermaid-1587532740696 .actor{stroke:#ccf;fill:#ececff}#mermaid-1587532740696 text.actor{fill:#000;stroke:none}#mermaid-1587532740696 .actor-line{stroke:gray}#mermaid-1587532740696 .messageLine0,#mermaid-1587532740696 .messageLine1{stroke-width:1.5;stroke-dasharray:&apos;2 2&apos;;stroke:#333}#mermaid-1587532740696 #arrowhead,#mermaid-1587532740696 #sequencenumber{fill:#333}#mermaid-1587532740696 #crosshead path{fill:#333!important;stroke:#333!important}#mermaid-1587532740696 .messageText{fill:#333;stroke:none}#mermaid-1587532740696 .activation0,#mermaid-1587532740696 .activation1{fill:#f4f4f4;stroke:#666}:root{--mermaid-font-family: &apos;&quot;trebuchet ms&quot;, verdana, arial&apos;;--mermaid-font-family: &quot;Comic Sans MS&quot;, &quot;Comic Sans&quot;, cursive;--mermaid-font-family: &quot;trebuchet ms&quot;, verdana, arial}</style><style>#mermaid-1587532740696{color:#000;font:16px &quot;trebuchet ms&quot;,verdana,arial}</style><g><line id="actor16" x1="75" x2="75" y1="5" y2="965" stroke="#999" stroke-width=".5" class="actor-line"/><rect width="150" height="65" x="0" y="0" fill="#eaeaea" stroke="#666" class="actor" rx="3" ry="3"/><text x="75" y="32.5" alignment-baseline="central" class="actor" dominant-baseline="central" style="text-anchor:middle;font-size:14px"><tspan x="75" dy="0">Front end</tspan></text></g><g><line id="actor17" x1="275" x2="275" y1="5" y2="965" stroke="#999" stroke-width=".5" class="actor-line"/><rect width="150" height="65" x="200" y="0" fill="#eaeaea" stroke="#666" class="actor" rx="3" ry="3"/><text x="275" y="32.5" alignment-baseline="central" class="actor" dominant-baseline="central" style="text-anchor:middle;font-size:14px"><tspan x="275" dy="0">Reverse proxy</tspan></text></g><g><line id="actor18" x1="475" x2="475" y1="5" y2="965" stroke="#999" stroke-width=".5" class="actor-line"/><rect width="150" height="65" x="400" y="0" fill="#eaeaea" stroke="#666" class="actor" rx="3" ry="3"/><text x="475" y="32.5" alignment-baseline="central" class="actor" dominant-baseline="central" style="text-anchor:middle;font-size:14px"><tspan x="475" dy="0">Orchestration</tspan></text></g><g><line id="actor19" x1="675" x2="675" y1="5" y2="965" stroke="#999" stroke-width=".5" class="actor-line"/><rect width="150" height="65" x="600" y="0" fill="#eaeaea" stroke="#666" class="actor" rx="3" ry="3"/><text x="675" y="32.5" alignment-baseline="central" class="actor" dominant-baseline="central" style="text-anchor:middle;font-size:14px"><tspan x="675" dy="0">Mouth Shapes</tspan></text></g><g><line id="actor20" x1="875" x2="875" y1="5" y2="965" stroke="#999" stroke-width=".5" class="actor-line"/><rect width="150" height="65" x="800" y="0" fill="#eaeaea" stroke="#666" class="actor" rx="3" ry="3"/><text x="875" y="32.5" alignment-baseline="central" class="actor" dominant-baseline="central" style="text-anchor:middle;font-size:14px"><tspan x="875" dy="0">Text to speech</tspan></text></g><defs><marker id="arrowhead" markerHeight="4" markerWidth="6" orient="auto" refX="5" refY="2"><path d="M 0,0 V 4 L6,2 Z"/></marker></defs><defs><marker id="crosshead" markerHeight="8" markerWidth="15" orient="auto" refX="16" refY="4"><path fill="#000" stroke="#000" stroke-width="1" d="M 9,2 V 6 L16,4 Z" style="stroke-dasharray:0,0"/><path fill="none" stroke="#000" stroke-width="1" d="M 0,1 L 6,7 M 6,1 L 0,7" style="stroke-dasharray:0,0"/></marker></defs><defs><marker id="sequencenumber" markerHeight="40" markerWidth="60" orient="auto" refX="15" refY="15"><circle cx="15" cy="15" r="6"/></marker></defs><g><text x="175" y="93" class="messageText" style="text-anchor:middle">post request { message }</text><line x1="75" x2="275" y1="100" y2="100" stroke="#000" stroke-width="2" marker-end="url(#arrowhead)" class="messageLine0" style="fill:none"/></g><g><rect width="10" height="503" x="270" y="102" fill="#EDF2AE" stroke="#666" class="activation0" rx="0" ry="0"/></g><g><text x="377.5" y="128" class="messageText" style="text-anchor:middle">proxy post request { message }</text><line x1="280" x2="475" y1="135" y2="135" stroke="#000" stroke-width="2" marker-end="url(#arrowhead)" class="messageLine0" style="fill:none"/></g><g><rect width="10" height="433" x="475" y="137" fill="#EDF2AE" stroke="#666" class="activation1" rx="0" ry="0"/></g><g><text x="485" y="163" class="messageText" style="text-anchor:middle">generate tts-query-url for message</text><path stroke="#000" stroke-width="2" marker-end="url(#arrowhead)" d="M 485,170 C 545,160 545,200 485,190" class="messageLine0" style="fill:none"/></g><g><text x="580" y="228" class="messageText" style="text-anchor:middle">post process { tts-query-url }</text><line x1="485" x2="675" y1="235" y2="235" stroke="#000" stroke-width="2" marker-end="url(#arrowhead)" class="messageLine0" style="fill:none"/></g><g><rect width="10" height="298" x="670" y="237" fill="#EDF2AE" stroke="#666" class="activation0" rx="0" ry="0"/></g><g><text x="777.5" y="263" class="messageText" style="text-anchor:middle">get tts-query-url</text><line x1="680" x2="875" y1="270" y2="270" stroke="#000" stroke-width="2" marker-end="url(#arrowhead)" class="messageLine0" style="fill:none"/></g><g><rect width="10" height="98" x="870" y="272" fill="#EDF2AE" stroke="#666" class="activation0" rx="0" ry="0"/></g><g><text x="880" y="298" class="messageText" style="text-anchor:middle">generates voice audio</text><path stroke="#000" stroke-width="2" marker-end="url(#arrowhead)" d="M 880,305 C 940,295 940,335 880,325" class="messageLine0" style="fill:none"/></g><g><text x="775" y="363" class="messageText" style="text-anchor:middle">audio.wav</text><line x1="870" x2="680" y1="370" y2="370" stroke="#000" stroke-width="2" marker-end="url(#arrowhead)" class="messageLine1" style="stroke-dasharray:3,3;fill:none"/></g><g><text x="680" y="398" class="messageText" style="text-anchor:middle">store voice audio</text><path stroke="#000" stroke-width="2" marker-end="url(#arrowhead)" d="M 680,405 C 740,395 740,435 680,425" class="messageLine0" style="fill:none"/></g><g><text x="680" y="463" class="messageText" style="text-anchor:middle">generate mouth shapes</text><path stroke="#000" stroke-width="2" marker-end="url(#arrowhead)" d="M 680,470 C 740,460 740,500 680,490" class="messageLine0" style="fill:none"/></g><g><text x="577.5" y="528" class="messageText" style="text-anchor:middle">{ mouthCues, uri to audio.wav }</text><line x1="670" x2="485" y1="535" y2="535" stroke="#000" stroke-width="2" marker-end="url(#arrowhead)" class="messageLine1" style="stroke-dasharray:3,3;fill:none"/></g><g><text x="375" y="563" class="messageText" style="text-anchor:middle">proxy { mouthCues, uri to audio.wav }</text><line x1="470" x2="280" y1="570" y2="570" stroke="#000" stroke-width="2" marker-end="url(#arrowhead)" class="messageLine1" style="stroke-dasharray:3,3;fill:none"/></g><g><text x="172.5" y="598" class="messageText" style="text-anchor:middle">{ mouthCues, uri to audio.wav }</text><line x1="270" x2="75" y1="605" y2="605" stroke="#000" stroke-width="2" marker-end="url(#arrowhead)" class="messageLine1" style="stroke-dasharray:3,3;fill:none"/></g><g><text x="175" y="633" class="messageText" style="text-anchor:middle">get { audio }</text><line x1="75" x2="275" y1="640" y2="640" stroke="#000" stroke-width="2" marker-end="url(#arrowhead)" class="messageLine0" style="fill:none"/></g><g><rect width="10" height="173" x="270" y="642" fill="#EDF2AE" stroke="#666" class="activation0" rx="0" ry="0"/></g><g><text x="375" y="668" class="messageText" style="text-anchor:middle">proxy get { audio }</text><line x1="280" x2="470" y1="675" y2="675" stroke="#000" stroke-width="2" marker-end="url(#arrowhead)" class="messageLine0" style="fill:none"/></g><g><rect width="10" height="103" x="475" y="677" fill="#EDF2AE" stroke="#666" class="activation1" rx="0" ry="0"/></g><g><text x="580" y="703" class="messageText" style="text-anchor:middle">proxy get { audio }</text><line x1="485" x2="675" y1="710" y2="710" stroke="#000" stroke-width="2" marker-end="url(#arrowhead)" class="messageLine0" style="fill:none"/></g><g><rect width="10" height="33" x="670" y="712" fill="#EDF2AE" stroke="#666" class="activation0" rx="0" ry="0"/></g><g><text x="577.5" y="738" class="messageText" style="text-anchor:middle">audio.wav</text><line x1="670" x2="485" y1="745" y2="745" stroke="#000" stroke-width="2" marker-end="url(#arrowhead)" class="messageLine1" style="stroke-dasharray:3,3;fill:none"/></g><g><text x="375" y="773" class="messageText" style="text-anchor:middle">proxy audio.wav</text><line x1="470" x2="280" y1="780" y2="780" stroke="#000" stroke-width="2" marker-end="url(#arrowhead)" class="messageLine1" style="stroke-dasharray:3,3;fill:none"/></g><g><text x="172.5" y="808" class="messageText" style="text-anchor:middle">proxy audio.wav</text><line x1="270" x2="75" y1="815" y2="815" stroke="#000" stroke-width="2" marker-end="url(#arrowhead)" class="messageLine1" style="stroke-dasharray:3,3;fill:none"/></g><g><text x="75" y="843" class="messageText" style="text-anchor:middle">Assemble and play mouth animation</text><path stroke="#000" stroke-width="2" marker-end="url(#arrowhead)" d="M 75,850 C 135,840 135,880 75,870" class="messageLine0" style="fill:none"/></g><g><rect width="150" height="65" x="0" y="900" fill="#eaeaea" stroke="#666" class="actor" rx="3" ry="3"/><text x="75" y="932.5" alignment-baseline="central" class="actor" dominant-baseline="central" style="text-anchor:middle;font-size:14px"><tspan x="75" dy="0">Front end</tspan></text></g><g><rect width="150" height="65" x="200" y="900" fill="#eaeaea" stroke="#666" class="actor" rx="3" ry="3"/><text x="275" y="932.5" alignment-baseline="central" class="actor" dominant-baseline="central" style="text-anchor:middle;font-size:14px"><tspan x="275" dy="0">Reverse proxy</tspan></text></g><g><rect width="150" height="65" x="400" y="900" fill="#eaeaea" stroke="#666" class="actor" rx="3" ry="3"/><text x="475" y="932.5" alignment-baseline="central" class="actor" dominant-baseline="central" style="text-anchor:middle;font-size:14px"><tspan x="475" dy="0">Orchestration</tspan></text></g><g><rect width="150" height="65" x="600" y="900" fill="#eaeaea" stroke="#666" class="actor" rx="3" ry="3"/><text x="675" y="932.5" alignment-baseline="central" class="actor" dominant-baseline="central" style="text-anchor:middle;font-size:14px"><tspan x="675" dy="0">Mouth Shapes</tspan></text></g><g><rect width="150" height="65" x="800" y="900" fill="#eaeaea" stroke="#666" class="actor" rx="3" ry="3"/><text x="875" y="932.5" alignment-baseline="central" class="actor" dominant-baseline="central" style="text-anchor:middle;font-size:14px"><tspan x="875" dy="0">Text to speech</tspan></text></g></svg>