<svg id="mermaid-1597897230012" width="480.48046875" xmlns="http://www.w3.org/2000/svg" height="552.875" viewBox="-20 -20 480.48046875 552.875"><style>#mermaid-1597897230012{font-family:"trebuchet ms",verdana,arial;font-size:16px;fill:#ccc;}#mermaid-1597897230012 .error-icon{fill:#a44141;}#mermaid-1597897230012 .error-text{fill:#ddd;stroke:#ddd;}#mermaid-1597897230012 .edge-thickness-normal{stroke-width:2px;}#mermaid-1597897230012 .edge-thickness-thick{stroke-width:3.5px;}#mermaid-1597897230012 .edge-pattern-solid{stroke-dasharray:0;}#mermaid-1597897230012 .edge-pattern-dashed{stroke-dasharray:3;}#mermaid-1597897230012 .edge-pattern-dotted{stroke-dasharray:2;}#mermaid-1597897230012 .marker{fill:lightgrey;}#mermaid-1597897230012 .marker.cross{stroke:lightgrey;}#mermaid-1597897230012 svg{font-family:"trebuchet ms",verdana,arial;font-size:16px;}#mermaid-1597897230012 g.classGroup text{fill:#81B1DB;fill:#e0dfdf;stroke:none;font-family:"trebuchet ms",verdana,arial;font-size:10px;}#mermaid-1597897230012 g.classGroup text .title{font-weight:bolder;}#mermaid-1597897230012 .node rect,#mermaid-1597897230012 .node circle,#mermaid-1597897230012 .node ellipse,#mermaid-1597897230012 .node polygon,#mermaid-1597897230012 .node path{fill:#1f2020;stroke:#81B1DB;stroke-width:1px;}#mermaid-1597897230012 .divider{stroke:#81B1DB;stroke:1;}#mermaid-1597897230012 g.clickable{cursor:pointer;}#mermaid-1597897230012 g.classGroup rect{fill:#1f2020;stroke:#81B1DB;}#mermaid-1597897230012 g.classGroup line{stroke:#81B1DB;stroke-width:1;}#mermaid-1597897230012 .classLabel .box{stroke:none;stroke-width:0;fill:#1f2020;opacity:0.5;}#mermaid-1597897230012 .classLabel .label{fill:#81B1DB;font-size:10px;}#mermaid-1597897230012 .relation{stroke:lightgrey;stroke-width:1;fill:none;}#mermaid-1597897230012 .dashed-line{stroke-dasharray:3;}#mermaid-1597897230012 #compositionStart,#mermaid-1597897230012 .composition{fill:lightgrey !important;stroke:lightgrey !important;stroke-width:1;}#mermaid-1597897230012 #compositionEnd,#mermaid-1597897230012 .composition{fill:lightgrey !important;stroke:lightgrey !important;stroke-width:1;}#mermaid-1597897230012 #dependencyStart,#mermaid-1597897230012 .dependency{fill:lightgrey !important;stroke:lightgrey !important;stroke-width:1;}#mermaid-1597897230012 #dependencyStart,#mermaid-1597897230012 .dependency{fill:lightgrey !important;stroke:lightgrey !important;stroke-width:1;}#mermaid-1597897230012 #extensionStart,#mermaid-1597897230012 .extension{fill:lightgrey !important;stroke:lightgrey !important;stroke-width:1;}#mermaid-1597897230012 #extensionEnd,#mermaid-1597897230012 .extension{fill:lightgrey !important;stroke:lightgrey !important;stroke-width:1;}#mermaid-1597897230012 #aggregationStart,#mermaid-1597897230012 .aggregation{fill:#1f2020 !important;stroke:lightgrey !important;stroke-width:1;}#mermaid-1597897230012 #aggregationEnd,#mermaid-1597897230012 .aggregation{fill:#1f2020 !important;stroke:lightgrey !important;stroke-width:1;}#mermaid-1597897230012:root{--mermaid-font-family:"trebuchet ms",verdana,arial;}#mermaid-1597897230012 class{fill:apa;}</style><g></g><defs><marker id="extensionStart" class="extension" refX="0" refY="7" markerWidth="190" markerHeight="240" orient="auto"><path d="M 1,7 L18,13 V 1 Z"></path></marker></defs><defs><marker id="extensionEnd" refX="19" refY="7" markerWidth="20" markerHeight="28" orient="auto"><path d="M 1,1 V 13 L18,7 Z"></path></marker></defs><defs><marker id="compositionStart" class="extension" refX="0" refY="7" markerWidth="190" markerHeight="240" orient="auto"><path d="M 18,7 L9,13 L1,7 L9,1 Z"></path></marker></defs><defs><marker id="compositionEnd" refX="19" refY="7" markerWidth="20" markerHeight="28" orient="auto"><path d="M 18,7 L9,13 L1,7 L9,1 Z"></path></marker></defs><defs><marker id="aggregationStart" class="extension" refX="0" refY="7" markerWidth="190" markerHeight="240" orient="auto"><path d="M 18,7 L9,13 L1,7 L9,1 Z"></path></marker></defs><defs><marker id="aggregationEnd" refX="19" refY="7" markerWidth="20" markerHeight="28" orient="auto"><path d="M 18,7 L9,13 L1,7 L9,1 Z"></path></marker></defs><defs><marker id="dependencyStart" class="extension" refX="0" refY="7" markerWidth="190" markerHeight="240" orient="auto"><path d="M 5,7 L9,13 L1,7 L9,1 Z"></path></marker></defs><defs><marker id="dependencyEnd" refX="19" refY="7" markerWidth="20" markerHeight="28" orient="auto"><path d="M 18,7 L9,13 L14,7 L9,1 Z"></path></marker></defs><g id="classid-reverse_proxy-1014" class="classGroup " transform="translate(171.34375,0 )"><rect x="0" y="0" width="120.640625" height="52.625"></rect><text y="15" x="0"><tspan x="38.921875">«Service»</tspan><tspan class="title" dy="10" x="26.390625">reverse_proxy</tspan></text><line x1="0" y1="31.5625" y2="31.5625" x2="120.640625"></line><text x="5" y="41.5625" fill="white" class="classText"><tspan x="5">http://localhost:8000</tspan></text><line x1="0" y1="48.125" y2="48.125" x2="120.640625"></line><text x="5" y="63.125" fill="white" class="classText"></text></g><g id="classid-front_end-1015" class="classGroup " transform="translate(0,112.59375 )"><rect x="0" y="0" width="115.3125" height="52.5625"></rect><text y="15" x="0"><tspan x="36.2578125">«Service»</tspan><tspan class="title" dy="10" x="34.2421875">front_end</tspan></text><line x1="0" y1="31.5" y2="31.5" x2="115.3125"></line><text x="5" y="41.5" fill="white" class="classText"><tspan x="5">http://front-end:3000</tspan></text><line x1="0" y1="48.0625" y2="48.0625" x2="115.3125"></line><text x="5" y="63.0625" fill="white" class="classText"></text></g><g id="classid-orchestration-1016" class="classGroup " transform="translate(165.3125,102.625 )"><rect x="0" y="0" width="132.703125" height="72.5"></rect><text y="15" x="0"><tspan x="44.953125">«Service»</tspan><tspan class="title" dy="10" x="34.7890625">orchestration</tspan></text><line x1="0" y1="31.5" y2="31.5" x2="132.703125"></line><text x="5" y="41.5" fill="white" class="classText"><tspan x="5">http://orchestration:3001</tspan><tspan x="5" dy="10">AI API</tspan><tspan x="5" dy="10">Voice service</tspan></text><line x1="0" y1="68" y2="68" x2="132.703125"></line><text x="5" y="83" fill="white" class="classText"></text></g><g id="classid-ibm_watson-1017" class="classGroup " transform="translate(125.94140625,235.875 )"><rect x="0" y="0" width="131.359375" height="41"></rect><text y="15" x="0"><tspan x="33.125">«External API»</tspan><tspan class="title" dy="10" x="37.546875">ibm_watson</tspan></text><line x1="0" y1="31.5" y2="31.5" x2="131.359375"></line><text x="5" y="41.5" fill="white" class="classText"></text><line x1="0" y1="36.5" y2="36.5" x2="131.359375"></line><text x="5" y="51.5" fill="white" class="classText"></text></g><g id="classid-voice_service-1018" class="classGroup " transform="translate(307.30078125,225.125 )"><rect x="0" y="0" width="131.515625" height="62.5"></rect><text y="15" x="0"><tspan x="44.359375">«Service»</tspan><tspan class="title" dy="10" x="33.703125">voice_service</tspan></text><line x1="0" y1="31.5" y2="31.5" x2="131.515625"></line><text x="5" y="41.5" fill="white" class="classText"><tspan x="5">http://voice-service:8081</tspan><tspan x="5" dy="10">Voice cache</tspan></text><line x1="0" y1="58" y2="58" x2="131.515625"></line><text x="5" y="73" fill="white" class="classText"></text></g><g id="classid-mouth_shapes-1019" class="classGroup " transform="translate(305.63671875,440.25 )"><rect x="0" y="0" width="134.84375" height="72.625"></rect><text y="15" x="0"><tspan x="46.0234375">«Service»</tspan><tspan class="title" dy="10" x="33.7421875">mouth_shapes</tspan></text><line x1="0" y1="31.5625" y2="31.5625" x2="134.84375"></line><text x="5" y="41.5625" fill="white" class="classText"><tspan x="5">http://mouth-shapes:3005</tspan><tspan x="5" dy="10">tts audio</tspan><tspan x="5" dy="10">Mouth shapes</tspan></text><line x1="0" y1="68.125" y2="68.125" x2="134.84375"></line><text x="5" y="83.125" fill="white" class="classText"></text></g><g id="classid-text_to_speech-1020" class="classGroup " transform="translate(261.046875,337.625 )"><rect x="0" y="0" width="126.015625" height="52.625"></rect><text y="15" x="0"><tspan x="41.609375">«Service»</tspan><tspan class="title" dy="10" x="26.390625">text_to_speech</tspan></text><line x1="0" y1="31.5625" y2="31.5625" x2="126.015625"></line><text x="5" y="41.5625" fill="white" class="classText"><tspan x="5">http://tts:59125</tspan></text><line x1="0" y1="48.125" y2="48.125" x2="126.015625"></line><text x="5" y="63.125" fill="white" class="classText"></text></g><path d="M171.34375,44.10012683518161L152.39583333333334,49.68760569598468C133.44791666666666,55.27508455678774,95.55208333333333,66.45004227839387,76.60416666666667,77.86564613919694C57.65625,89.28125,57.65625,100.9375,57.65625,106.765625L57.65625,112.59375" id="edge1120" class="relation"></path><path d="M231.6640625,52.625L231.6640625,56.791666666666664C231.6640625,60.958333333333336,231.6640625,69.29166666666667,231.6640625,77.625C231.6640625,85.95833333333333,231.6640625,94.29166666666667,231.6640625,98.45833333333333L231.6640625,102.625" id="edge1121" class="relation"></path><path d="M207.96516262755102,175.125L205.2411511479592,179.29166666666666C202.51713966836735,183.45833333333334,197.0691167091837,191.79166666666666,194.34510522959184,201.91666666666666C191.62109375,212.04166666666666,191.62109375,223.95833333333334,191.62109375,229.91666666666666L191.62109375,235.875" id="edge1122" class="relation"></path><path d="M285.3547512755102,175.125L291.5260948129251,179.29166666666666C297.6974383503401,183.45833333333334,310.04012542517006,191.79166666666666,319.96523053665913,200.125C329.89033564814815,208.45833333333334,337.3978587962963,216.79166666666666,341.1516203703704,220.95833333333334L344.90538194444446,225.125" id="edge1123" class="relation"></path><path d="M345.8342013888889,287.625L342.2042824074074,291.7916666666667C338.5743634259259,295.9583333333333,331.314525462963,304.2916666666667,327.68460648148147,312.625C324.0546875,320.9583333333333,324.0546875,329.2916666666667,324.0546875,333.4583333333333L324.0546875,337.625" id="edge1124" class="relation dashed-line"></path><g class="classLabel"><rect class="box" x="291.703125" y="297.546875" width="70.0625" height="16.5625"></rect><text class="label" x="326.733544633061" y="309.5500264873592" fill="red" text-anchor="middle">API knowledge</text></g><path d="M324.0546875,390.25L324.0546875,394.4166666666667C324.0546875,398.5833333333333,324.0546875,406.9166666666667,327.38488840044175,415.25C330.71508930088345,423.5833333333333,337.3754911017669,431.9166666666667,340.70569200220865,436.0833333333333L344.03589290265035,440.25" id="edge1125" class="relation"></path><path d="M400.2829861111111,287.625L403.9129050925926,291.7916666666667C407.5428240740741,295.9583333333333,414.802662037037,304.2916666666667,418.43258101851853,317.0104166666667C422.0625,329.7291666666667,422.0625,346.8333333333333,422.0625,363.9375C422.0625,381.0416666666667,422.0625,398.1458333333333,418.7322990995583,410.8645833333333C415.40209819911655,423.5833333333333,408.74169639823305,431.9166666666667,405.41149549779135,436.0833333333333L402.08129459734965,440.25" id="edge1126" class="relation"></path><path d="M378.61414930555554,225.125L379.3548900462963,220.95833333333334C380.095630787037,216.79166666666666,381.57711226851853,208.45833333333334,382.3178530092593,194.08333333333334C383.05859375,179.70833333333334,383.05859375,159.29166666666666,383.05859375,138.875C383.05859375,118.45833333333333,383.05859375,98.04166666666667,367.8795572916667,82.688667262258C352.7005208333333,67.33566785784933,322.3424479166667,57.04633571569867,307.1634114583333,51.90166964462333L291.984375,46.757003573548005" id="edge1127" class="relation"></path><g class="classLabel"><rect class="box" x="346.90625" y="91.484375" width="72.296875" height="16.5625"></rect><text class="label" x="383.05859375" y="103.48943203553551" fill="red" text-anchor="middle">tts audio proxy</text></g></svg>