<svg xmlns="http://www.w3.org/2000/svg" id="mermaid-1587699246627" width="542.135" height="440.438" viewBox="-10 -10 368.09 420.438"><style>#mermaid-1587699246627 .label,#mermaid-1587699246627 g.classGroup text{font-family:&apos;trebuchet ms&apos;,verdana,arial;font-family:var(--mermaid-font-family)}#mermaid-1587699246627 .label{color:#333}#mermaid-1587699246627 .label text{fill:#333}#mermaid-1587699246627 g.classGroup text{fill:#9370db;stroke:none;font-size:10px}#mermaid-1587699246627 g.classGroup text .title{font-weight:bolder}#mermaid-1587699246627 g.classGroup rect{fill:#ececff;stroke:#9370db}#mermaid-1587699246627 g.classGroup line{stroke:#9370db;stroke-width:1}#mermaid-1587699246627 .classLabel .box{stroke:none;stroke-width:0;fill:#ececff;opacity:.5}#mermaid-1587699246627 .classLabel .label{fill:#9370db;font-size:10px}#mermaid-1587699246627 .relation{stroke:#9370db;stroke-width:1;fill:none}#mermaid-1587699246627 .dashed-line{stroke-dasharray:3}#mermaid-1587699246627 #compositionEnd,#mermaid-1587699246627 #compositionStart{fill:#9370db;stroke:#9370db;stroke-width:1}#mermaid-1587699246627 #aggregationEnd,#mermaid-1587699246627 #aggregationStart{fill:#ececff;stroke:#9370db;stroke-width:1}#mermaid-1587699246627 #dependencyEnd,#mermaid-1587699246627 #dependencyStart,#mermaid-1587699246627 #extensionEnd,#mermaid-1587699246627 #extensionStart{fill:#9370db;stroke:#9370db;stroke-width:1}:root{--mermaid-font-family: &apos;&quot;trebuchet ms&quot;, verdana, arial&apos;;--mermaid-font-family: &quot;Comic Sans MS&quot;, &quot;Comic Sans&quot;, cursive;--mermaid-font-family: &quot;trebuchet ms&quot;, verdana, arial}</style><style>#mermaid-1587699246627{color:#000;font:16px &quot;trebuchet ms&quot;,verdana,arial}</style><defs><marker id="extensionStart" class="extension" markerHeight="240" markerWidth="190" orient="auto" refX="0" refY="7"><path d="M 1,7 L18,13 V 1 Z"/></marker></defs><defs><marker id="extensionEnd" markerHeight="28" markerWidth="20" orient="auto" refX="19" refY="7"><path d="M 1,1 V 13 L18,7 Z"/></marker></defs><defs><marker id="compositionStart" class="extension" markerHeight="240" markerWidth="190" orient="auto" refX="0" refY="7"><path d="M 18,7 L9,13 L1,7 L9,1 Z"/></marker></defs><defs><marker id="compositionEnd" markerHeight="28" markerWidth="20" orient="auto" refX="19" refY="7"><path d="M 18,7 L9,13 L1,7 L9,1 Z"/></marker></defs><defs><marker id="aggregationStart" class="extension" markerHeight="240" markerWidth="190" orient="auto" refX="0" refY="7"><path d="M 18,7 L9,13 L1,7 L9,1 Z"/></marker></defs><defs><marker id="aggregationEnd" markerHeight="28" markerWidth="20" orient="auto" refX="19" refY="7"><path d="M 18,7 L9,13 L1,7 L9,1 Z"/></marker></defs><defs><marker id="dependencyStart" class="extension" markerHeight="240" markerWidth="190" orient="auto" refX="0" refY="7"><path d="M 5,7 L9,13 L1,7 L9,1 Z"/></marker></defs><defs><marker id="dependencyEnd" markerHeight="28" markerWidth="20" orient="auto" refX="19" refY="7"><path d="M 18,7 L9,13 L14,7 L9,1 Z"/></marker></defs><g id="classid-reverse_proxy-135" class="classGroup" transform="translate(171.34375,0 )"><rect width="120.641" height="52.625" x="0" y="0"/><text x="0" y="15"><tspan x="5">«Service»</tspan><tspan x="5" class="title" dy="10">reverse_proxy</tspan></text><line x1="0" x2="120.641" y1="31.563" y2="31.563"/><text x="5" y="41.563" fill="#fff" class="classText"><tspan x="5">http://localhost:8000</tspan></text><line x1="0" x2="120.641" y1="48.125" y2="48.125"/></g><g id="classid-front_end-136" class="classGroup" transform="translate(0,112.625 )"><rect width="115.313" height="52.563" x="0" y="0"/><text x="0" y="15"><tspan x="12.852">«Service»</tspan><tspan x="12.844" class="title" dy="10">front_end</tspan></text><line x1="0" x2="115.313" y1="31.5" y2="31.5"/><text x="5" y="41.5" fill="#fff" class="classText"><tspan x="5">http://front-end:3000</tspan></text><line x1="0" x2="115.313" y1="48.063" y2="48.063"/></g><g id="classid-orchestration-137" class="classGroup" transform="translate(165.3125,102.625 )"><rect width="132.703" height="72.563" x="0" y="0"/><text x="0" y="15"><tspan x="13.398">«Service»</tspan><tspan x="13.398" class="title" dy="10">orchestration</tspan></text><line x1="0" x2="132.703" y1="31.5" y2="31.5"/><text x="5" y="41.5" fill="#fff" class="classText"><tspan x="5">http://orchestration:3001</tspan><tspan x="5" dy="10">TTS API</tspan><tspan x="5" dy="10">Mouth Shapes API</tspan></text><line x1="0" x2="132.703" y1="68.063" y2="68.063"/></g><g id="classid-mouth_shapes-138" class="classGroup" transform="translate(213.24609375,327.8125 )"><rect width="134.844" height="72.625" x="0" y="0"/><text x="0" y="15"><tspan x="12.344">«Service»</tspan><tspan x="12.344" class="title" dy="10">mouth_shapes</tspan></text><line x1="0" x2="134.844" y1="31.563" y2="31.563"/><text x="5" y="41.563" fill="#fff" class="classText"><tspan x="5">http://mouth-shapes:3005</tspan><tspan x="5" dy="10">tts audio download</tspan><tspan x="5" dy="10">Mouth shapes analysis</tspan></text><line x1="0" x2="134.844" y1="68.125" y2="68.125"/></g><g id="classid-text_to_speech-139" class="classGroup" transform="translate(217.66015625,225.1875 )"><rect width="126.016" height="52.625" x="0" y="0"/><text x="0" y="15"><tspan x="5">«Service»</tspan><tspan x="5" class="title" dy="10">text_to_speech</tspan></text><line x1="0" x2="126.016" y1="31.563" y2="31.563"/><text x="5" y="41.563" fill="#fff" class="classText"><tspan x="5">http://tts:59125</tspan></text><line x1="0" x2="126.016" y1="48.125" y2="48.125"/></g><path id="edge156" d="M171.34375,44.10012683518161L152.39583333333334,49.68760569598468C133.44791666666666,55.27508455678774,95.55208333333333,66.45004227839387,76.60416666666667,77.87085447253027C57.65625,89.29166666666667,57.65625,100.95833333333333,57.65625,106.79166666666667L57.65625,112.625" class="relation"/><path id="edge157" d="M231.6640625,52.625L231.6640625,56.791666666666664C231.6640625,60.958333333333336,231.6640625,69.29166666666667,231.6640625,77.625C231.6640625,85.95833333333333,231.6640625,94.29166666666667,231.6640625,98.45833333333333L231.6640625,102.625" class="relation"/><path id="edge158" d="M202.65155094658337,175.1875L199.31965183048615,179.35416666666666C195.9877527143889,183.52083333333334,189.32395448219447,191.85416666666666,185.99205536609725,204.57291666666666C182.66015625,217.29166666666666,182.66015625,234.39583333333334,182.66015625,251.5C182.66015625,268.6041666666667,182.66015625,285.7083333333333,189.32055805088348,298.4270833333333C195.9809598517669,311.1458333333333,209.3017634535338,319.4791666666667,215.96216525441727,323.6458333333333L222.62256705530072,327.8125" class="relation"/><path id="edge159" d="M260.67657405341663,175.1875L264.0084731695138,179.35416666666666C267.34037228561107,183.52083333333334,274.00417051780556,191.85416666666666,277.33606963390275,200.1875C280.66796875,208.52083333333334,280.66796875,216.85416666666666,280.66796875,221.02083333333334L280.66796875,225.1875" class="relation dashed-line"/><g class="classLabel"><rect width="70.047" height="16.578" x="243.453" y="185.438" class="box"/><text x="278.479" y="197.45" fill="red" class="label" text-anchor="middle">API knowledge</text></g><path id="edge160" d="M280.66796875,277.8125L280.66796875,281.9791666666667C280.66796875,286.1458333333333,280.66796875,294.4791666666667,280.66796875,302.8125C280.66796875,311.1458333333333,280.66796875,319.4791666666667,280.66796875,323.6458333333333L280.66796875,327.8125" class="relation"/><path id="edge161" d="M339.7035431001529,327.8125L346.47756195846074,323.6458333333333C353.25158081676864,319.4791666666667,366.7996185333843,311.1458333333333,373.5736373916922,298.4270833333333C380.34765625,285.7083333333333,380.34765625,268.6041666666667,380.34765625,251.5C380.34765625,234.39583333333334,380.34765625,217.29166666666666,380.34765625,198.52604166666666C380.34765625,179.76041666666666,380.34765625,159.33333333333334,380.34765625,138.90625C380.34765625,118.47916666666667,380.34765625,98.05208333333333,365.6204427083333,82.75600279470878C350.8932291666667,67.45992225608421,321.4388020833333,57.294844512168424,306.7115885416667,52.21230564021053L291.984375,47.12976676825264" class="relation"/><g class="classLabel"><rect width="72.297" height="16.563" x="344.203" y="155.328" class="box"/><text x="380.348" y="167.339" fill="red" class="label" text-anchor="middle">tts audio proxy</text></g></svg>